<?xml version="1.0" encoding="utf-8"?>
<!-- Generator: Adobe Illustrator 16.0.4, SVG Export Plug-In . SVG Version: 6.00 Build 0)  -->
<!DOCTYPE svg PUBLIC "-//W3C//DTD SVG 1.1//EN" "http://www.w3.org/Graphics/SVG/1.1/DTD/svg11.dtd">
<svg version="1.1" id="Layer_1" xmlns="http://www.w3.org/2000/svg" xmlns:xlink="http://www.w3.org/1999/xlink" x="0px" y="0px"
	 width="215.125px" height="43px" viewBox="0 0 215.125 43" enable-background="new 0 0 215.125 43" xml:space="preserve">
<path fill="#DC493D" d="M317-188.06c0,18.227-14.773,33-33,33s-33-14.773-33-33c0-18.226,14.773-33,33-33S317-206.286,317-188.06"/>
<g>
	<path fill="#29AAE1" d="M119-188.06c0,18.226-14.774,33-33,33c-18.227,0-33-14.774-33-33s14.774-33,33-33
		C104.225-221.06,119-206.286,119-188.06"/>
	<path fill="#FFFFFF" d="M80.623-176.49c10.937,0,16.917-9.061,16.917-16.917c0-0.257-0.005-0.514-0.017-0.768
		c1.161-0.84,2.17-1.887,2.966-3.079c-1.065,0.473-2.212,0.792-3.415,0.936c1.228-0.736,2.17-1.9,2.614-3.289
		c-1.149,0.681-2.421,1.176-3.775,1.443c-1.085-1.156-2.63-1.878-4.34-1.878c-3.284,0-5.946,2.663-5.946,5.945
		c0,0.467,0.052,0.921,0.154,1.356c-4.941-0.249-9.323-2.615-12.255-6.212c-0.511,0.878-0.806,1.899-0.806,2.988
		c0,2.063,1.05,3.884,2.646,4.949c-0.975-0.03-1.891-0.297-2.693-0.744c-0.001,0.025-0.001,0.05-0.001,0.076
		c0,2.88,2.05,5.284,4.771,5.829c-0.5,0.136-1.025,0.209-1.568,0.209c-0.382,0-0.755-0.038-1.117-0.107
		c0.757,2.362,2.952,4.081,5.555,4.129c-2.035,1.595-4.6,2.545-7.385,2.545c-0.479,0-0.953-0.027-1.418-0.083
		C74.141-177.474,77.265-176.49,80.623-176.49"/>
</g>
<g>
	<path fill="#2075BC" d="M53-188.061c0,18.226-14.775,33-33.001,33c-18.224,0-32.999-14.775-32.999-33s14.775-33,32.999-33
		C38.225-221.061,53-206.286,53-188.061"/>
	<path fill="#FFFFFF" d="M15.416-172.013v-14.69h-4.687v-6.251h4.687v-4.687c0,0,0.314-6.878,6.254-6.878h5.936v5.938h-4.062
		c0,0-2.189,0.625-2.189,1.874v3.752h6.252v6.251h-6.562v14.69L15.416-172.013L15.416-172.013z"/>
</g>
<g>
	<radialGradient id="SVGID_1_" cx="139.1528" cy="-147.3931" r="76.3978" gradientUnits="userSpaceOnUse">
		<stop  offset="0" style="stop-color:#FFD676"/>
		<stop  offset="0.2463" style="stop-color:#F2A454"/>
		<stop  offset="0.3793" style="stop-color:#F05C3C"/>
		<stop  offset="0.6995" style="stop-color:#C22F86"/>
		<stop  offset="0.9568" style="stop-color:#6666AD"/>
		<stop  offset="0.9852" style="stop-color:#5C6CB2"/>
		<stop  offset="1" style="stop-color:#5C6CB2"/>
	</radialGradient>
	<path fill="url(#SVGID_1_)" d="M184.82-188.06c0,18.226-14.774,33-33,33c-18.227,0-33-14.774-33-33s14.774-33,33-33
		S184.82-206.286,184.82-188.06"/>
	<g>
		<g>
			<defs>
				<rect id="SVGID_2_" x="136.8" y="-203.178" width="30.04" height="30.043"/>
			</defs>
			<clipPath id="SVGID_3_">
				<use xlink:href="#SVGID_2_"  overflow="visible"/>
			</clipPath>
			<path clip-path="url(#SVGID_3_)" fill="#FFFFFF" d="M151.818-200.472c4.011,0,4.486,0.016,6.069,0.088
				c1.464,0.066,2.26,0.312,2.789,0.518c0.701,0.272,1.202,0.598,1.729,1.124c0.524,0.525,0.851,1.025,1.123,1.727
				c0.204,0.53,0.45,1.325,0.518,2.79c0.071,1.584,0.088,2.059,0.088,6.07c0,4.011-0.017,4.486-0.088,6.07
				c-0.067,1.465-0.313,2.26-0.518,2.789c-0.272,0.702-0.599,1.202-1.123,1.728c-0.526,0.526-1.027,0.851-1.729,1.124
				c-0.529,0.205-1.325,0.451-2.789,0.517c-1.583,0.072-2.058,0.087-6.069,0.087s-4.485-0.015-6.069-0.087
				c-1.466-0.066-2.261-0.312-2.789-0.517c-0.701-0.273-1.202-0.598-1.729-1.124s-0.85-1.026-1.124-1.728
				c-0.205-0.529-0.45-1.324-0.516-2.789c-0.073-1.584-0.089-2.059-0.089-6.07c0-4.011,0.016-4.486,0.089-6.07
				c0.065-1.464,0.311-2.26,0.516-2.79c0.274-0.701,0.598-1.202,1.124-1.727c0.526-0.525,1.027-0.851,1.729-1.124
				c0.528-0.206,1.323-0.451,2.789-0.518C147.333-200.456,147.806-200.472,151.818-200.472 M151.818-203.178
				c-4.08,0-4.591,0.017-6.193,0.09c-1.599,0.073-2.691,0.327-3.646,0.698c-0.988,0.384-1.826,0.897-2.66,1.732
				c-0.835,0.835-1.349,1.673-1.732,2.661c-0.373,0.955-0.625,2.047-0.698,3.646c-0.073,1.602-0.091,2.114-0.091,6.193
				c0,4.08,0.018,4.591,0.091,6.193c0.073,1.599,0.325,2.691,0.698,3.646c0.384,0.988,0.897,1.825,1.732,2.661
				c0.834,0.834,1.672,1.349,2.66,1.732c0.955,0.372,2.048,0.625,3.646,0.698c1.603,0.074,2.113,0.091,6.193,0.091
				c4.079,0,4.591-0.017,6.192-0.091c1.6-0.072,2.691-0.326,3.646-0.698c0.988-0.384,1.826-0.898,2.662-1.732
				c0.834-0.836,1.348-1.673,1.731-2.661c0.371-0.956,0.625-2.047,0.698-3.646c0.073-1.602,0.092-2.114,0.092-6.193
				c0-4.079-0.019-4.591-0.092-6.193c-0.073-1.6-0.327-2.691-0.698-3.646c-0.384-0.988-0.897-1.826-1.731-2.661
				c-0.836-0.835-1.674-1.348-2.662-1.732c-0.955-0.372-2.047-0.625-3.646-0.698C156.409-203.161,155.897-203.178,151.818-203.178z"
				/>
		</g>
		<path fill="#FFFFFF" d="M151.818-195.871c-4.261,0-7.713,3.454-7.713,7.714c0,4.261,3.452,7.714,7.713,7.714
			s7.714-3.453,7.714-7.714C159.532-192.417,156.079-195.871,151.818-195.871 M151.818-183.149c-2.766,0-5.007-2.241-5.007-5.007
			c0-2.765,2.241-5.007,5.007-5.007c2.765,0,5.008,2.242,5.008,5.007C156.826-185.391,154.583-183.149,151.818-183.149z"/>
		<path fill="#FFFFFF" d="M161.638-196.175c0,0.996-0.807,1.803-1.802,1.803c-0.996,0-1.803-0.807-1.803-1.803
			s0.807-1.803,1.803-1.803C160.832-197.978,161.638-197.17,161.638-196.175"/>
	</g>
</g>
<g>
	<path fill="#BA2032" d="M251-188.06c0,18.227-14.773,33-33,33s-33-14.773-33-33c0-18.226,14.773-33,33-33S251-206.286,251-188.06"
		/>
	<path fill="#FFFFFF" d="M227.925-198.453h-19.85c-2.808,0-5.084,2.274-5.084,5.083v10.895c0,2.808,2.277,5.085,5.084,5.085h19.85
		c2.81,0,5.084-2.277,5.084-5.085v-10.895C233.009-196.179,230.735-198.453,227.925-198.453 M214.074-181.923l-0.098-11.997
		l10.367,5.654L214.074-181.923z"/>
</g>
<g>
	<g>
		<defs>
			<path id="SVGID_4_" d="M281.288-194.846l0.006-0.006c-3.179-3.111-8.439-2.97-11.705,0.302c-3.433,3.44-3.469,9.062-0.082,12.549
				c3.386,3.487,9.305,3.521,12.479,0.058c0.88-0.961,1.378-2.101,1.623-3.343h-7.919v-5.841h13.946
				c0.611,5.009-0.159,9.904-3.409,13.396c-5.05,5.426-14.128,5.712-19.975,0.92l21.528,21.529l0.008,0.009
				c14.393-1.647,25.981-12.565,28.639-26.628l-0.022-0.023l-14.095-14.095v6.782h-6.782l-9.922-9.923L281.288-194.846z"/>
		</defs>
		<clipPath id="SVGID_5_">
			<use xlink:href="#SVGID_4_"  overflow="visible"/>
		</clipPath>
		<g clip-path="url(#SVGID_5_)">
			<g>
				<defs>
					
						<rect id="SVGID_6_" x="257.969" y="-210.521" transform="matrix(-0.7071 -0.7071 0.7071 -0.7071 622.5446 -96.5701)" width="66.606" height="66.606"/>
				</defs>
				<clipPath id="SVGID_7_">
					<use xlink:href="#SVGID_6_"  overflow="visible"/>
				</clipPath>
				<polygon clip-path="url(#SVGID_7_)" fill="#BA3E35" points="260.128,-224.316 244.175,-208.363 244.175,-224.316 				"/>
				<polygon clip-path="url(#SVGID_7_)" fill="#BA3E35" points="263.093,-224.316 244.175,-205.398 244.175,-208.52 
					259.972,-224.316 				"/>
				<polygon clip-path="url(#SVGID_7_)" fill="#BB3E35" points="266.218,-224.316 244.175,-202.273 244.175,-205.398 
					263.093,-224.316 				"/>
				<polygon clip-path="url(#SVGID_7_)" fill="#BC3E35" points="269.339,-224.316 244.175,-199.148 244.175,-202.273 
					266.218,-224.316 				"/>
				<polygon clip-path="url(#SVGID_7_)" fill="#BD3E35" points="272.464,-224.316 244.175,-196.027 244.175,-199.148 
					269.339,-224.316 				"/>
				<polygon clip-path="url(#SVGID_7_)" fill="#BE3F35" points="275.585,-224.316 244.175,-192.906 244.175,-196.027 
					272.464,-224.316 				"/>
				<polygon clip-path="url(#SVGID_7_)" fill="#BF3F35" points="278.71,-224.316 244.175,-189.781 244.175,-192.906 
					275.585,-224.316 				"/>
				<polygon clip-path="url(#SVGID_7_)" fill="#C03F35" points="281.832,-224.316 244.175,-186.656 244.175,-189.781 
					278.71,-224.316 				"/>
				<polygon clip-path="url(#SVGID_7_)" fill="#C13F35" points="284.953,-224.316 244.175,-183.535 244.175,-186.656 
					281.832,-224.316 				"/>
				<polygon clip-path="url(#SVGID_7_)" fill="#C23F35" points="288.078,-224.316 244.175,-180.414 244.175,-183.535 
					284.953,-224.316 				"/>
				<polygon clip-path="url(#SVGID_7_)" fill="#C33F35" points="291.203,-224.316 244.175,-177.289 244.175,-180.414 
					288.078,-224.316 				"/>
				<polygon clip-path="url(#SVGID_7_)" fill="#C43F35" points="294.324,-224.316 244.175,-174.164 244.175,-177.289 
					291.203,-224.316 				"/>
				<polygon clip-path="url(#SVGID_7_)" fill="#C53F35" points="297.445,-224.316 244.175,-171.043 244.175,-174.164 
					294.324,-224.316 				"/>
				<polygon clip-path="url(#SVGID_7_)" fill="#C64035" points="300.57,-224.316 244.175,-167.922 244.175,-171.043 
					297.445,-224.316 				"/>
				<polygon clip-path="url(#SVGID_7_)" fill="#C74035" points="303.691,-224.316 244.175,-164.797 244.175,-167.922 
					300.57,-224.316 				"/>
				<polygon clip-path="url(#SVGID_7_)" fill="#C84035" points="306.816,-224.316 244.175,-161.676 244.175,-164.797 
					303.691,-224.316 				"/>
				<polygon clip-path="url(#SVGID_7_)" fill="#C94035" points="309.937,-224.316 244.175,-158.551 244.175,-161.676 
					306.816,-224.316 				"/>
				<polygon clip-path="url(#SVGID_7_)" fill="#CA4035" points="313.062,-224.316 244.175,-155.43 244.175,-158.551 
					309.937,-224.316 				"/>
				<polygon clip-path="url(#SVGID_7_)" fill="#CB4035" points="316.183,-224.316 244.175,-152.305 244.175,-155.43 
					313.062,-224.316 				"/>
				<polygon clip-path="url(#SVGID_7_)" fill="#CC4035" points="319.308,-224.316 244.175,-149.184 244.175,-152.305 
					316.183,-224.316 				"/>
				<polygon clip-path="url(#SVGID_7_)" fill="#CE4135" points="322.429,-224.316 244.175,-146.059 244.175,-149.184 
					319.308,-224.316 				"/>
				<polygon clip-path="url(#SVGID_7_)" fill="#CF4135" points="325.554,-224.316 244.175,-142.938 244.175,-146.059 
					322.429,-224.316 				"/>
				<polygon clip-path="url(#SVGID_7_)" fill="#D04135" points="328.675,-224.316 244.175,-139.812 244.175,-142.938 
					325.554,-224.316 				"/>
				<polygon clip-path="url(#SVGID_7_)" fill="#D14135" points="331.796,-224.316 244.175,-136.691 244.175,-139.812 
					328.675,-224.316 				"/>
				<polygon clip-path="url(#SVGID_7_)" fill="#D24135" points="334.921,-224.316 244.175,-133.566 244.175,-136.691 
					331.796,-224.316 				"/>
				<polygon clip-path="url(#SVGID_7_)" fill="#D34135" points="338.046,-224.316 244.175,-130.445 244.175,-133.566 
					334.921,-224.316 				"/>
				<polygon clip-path="url(#SVGID_7_)" fill="#D44135" points="338.371,-221.516 246.976,-130.121 244.175,-130.121 
					244.175,-130.445 338.046,-224.316 338.371,-224.316 				"/>
				<polygon clip-path="url(#SVGID_7_)" fill="#D54235" points="338.371,-218.395 250.097,-130.121 246.976,-130.121 
					338.371,-221.516 				"/>
				<polygon clip-path="url(#SVGID_7_)" fill="#D64235" points="338.371,-215.273 253.218,-130.121 250.097,-130.121 
					338.371,-218.395 				"/>
				<polygon clip-path="url(#SVGID_7_)" fill="#D74235" points="338.371,-212.148 256.343,-130.121 253.218,-130.121 
					338.371,-215.273 				"/>
				<polygon clip-path="url(#SVGID_7_)" fill="#D84235" points="338.371,-209.023 259.468,-130.121 256.343,-130.121 
					338.371,-212.148 				"/>
				<polygon clip-path="url(#SVGID_7_)" fill="#D94235" points="338.371,-205.902 262.589,-130.121 259.468,-130.121 
					338.371,-209.023 				"/>
				<polygon clip-path="url(#SVGID_7_)" fill="#DA4235" points="338.371,-202.781 265.71,-130.121 262.589,-130.121 
					338.371,-205.902 				"/>
				<polygon clip-path="url(#SVGID_7_)" fill="#DB4235" points="338.371,-199.656 268.835,-130.121 265.71,-130.121 
					338.371,-202.781 				"/>
				<polygon clip-path="url(#SVGID_7_)" fill="#DC4235" points="338.371,-196.535 271.957,-130.121 268.835,-130.121 
					338.371,-199.656 				"/>
				<polygon clip-path="url(#SVGID_7_)" fill="#DD4335" points="338.371,-193.41 275.082,-130.121 271.957,-130.121 
					338.371,-196.535 				"/>
				<polygon clip-path="url(#SVGID_7_)" fill="#DE4335" points="338.371,-190.289 278.203,-130.121 275.082,-130.121 
					338.371,-193.41 				"/>
				<polygon clip-path="url(#SVGID_7_)" fill="#DF4335" points="338.371,-187.164 281.328,-130.121 278.203,-130.121 
					338.371,-190.289 				"/>
				<polygon clip-path="url(#SVGID_7_)" fill="#E04335" points="338.371,-184.043 284.449,-130.121 281.328,-130.121 
					338.371,-187.164 				"/>
				<polygon clip-path="url(#SVGID_7_)" fill="#E04335" points="284.449,-130.121 338.371,-184.043 338.371,-130.121 				"/>
			</g>
		</g>
	</g>
	<g>
		<g>
			<polygon fill-rule="evenodd" clip-rule="evenodd" fill="#AD352D" points="298.728,-181.605 298.728,-186.774 293.559,-186.774 
				293.559,-190.459 298.728,-190.459 298.728,-195.627 302.413,-195.627 302.413,-190.459 307.58,-190.459 307.58,-186.774 
				302.413,-186.774 302.413,-181.605 			"/>
		</g>
		<g>
			<path fill-rule="evenodd" clip-rule="evenodd" fill="#AD352D" d="M265.251-177.482c-5.745-5.822-5.682-15.211,0.142-20.957
				c5.63-5.554,14.547-5.635,20.327-0.376l-4.316,4.315l0.007-0.006c-3.181-3.111-8.441-2.971-11.705,0.302
				c-3.434,3.44-3.471,9.062-0.084,12.548c3.388,3.488,9.305,3.522,12.478,0.059c0.882-0.962,1.38-2.101,1.625-3.344h-7.918v-5.91
				h13.945c0.775,4.965-0.16,9.973-3.408,13.464C280.958-171.601,270.998-171.659,265.251-177.482"/>
		</g>
		<g>
			<polygon fill-rule="evenodd" clip-rule="evenodd" fill="#EFEFEF" points="298.61,-181.953 298.61,-187.121 293.442,-187.121 
				293.442,-190.806 298.61,-190.806 298.61,-195.975 302.297,-195.975 302.297,-190.806 307.465,-190.806 307.465,-187.121 
				302.297,-187.121 302.297,-181.953 			"/>
		</g>
		<g>
			<path fill-rule="evenodd" clip-rule="evenodd" fill="#EFEFEF" d="M265.136-177.829c-5.745-5.823-5.682-15.211,0.14-20.957
				c5.63-5.554,14.548-5.636,20.329-0.376l-4.317,4.316l0.008-0.006c-3.181-3.111-8.441-2.97-11.705,0.302
				c-3.435,3.44-3.471,9.062-0.084,12.549c3.388,3.487,9.305,3.521,12.479,0.058c0.88-0.961,1.378-2.101,1.623-3.343h-7.918
				l-0.001-5.91h13.946c0.776,4.965-0.159,9.973-3.409,13.464C280.843-171.948,270.882-172.006,265.136-177.829"/>
		</g>
		<g>
			<rect x="298.61" y="-195.975" fill-rule="evenodd" clip-rule="evenodd" fill="#FFFFFF" width="3.688" height="0.414"/>
		</g>
		<g>
			<rect x="302.297" y="-190.806" fill-rule="evenodd" clip-rule="evenodd" fill="#FFFFFF" width="5.168" height="0.414"/>
		</g>
		<g>
			<rect x="293.442" y="-190.806" fill-rule="evenodd" clip-rule="evenodd" fill="#FFFFFF" width="5.168" height="0.414"/>
		</g>
		<g>
			<path fill-rule="evenodd" clip-rule="evenodd" fill="#FFFFFF" d="M265.276-198.786c5.63-5.554,14.548-5.636,20.329-0.376
				l-0.224,0.224l0.003-0.003c-5.784-5.06-14.549-4.911-20.108,0.573c-2.883,2.845-4.354,6.584-4.406,10.341
				C260.816-191.924,262.288-195.835,265.276-198.786"/>
		</g>
		<g>
			<path fill-rule="evenodd" clip-rule="evenodd" fill="#FFFFFF" d="M289.635-190.781h-13.946v-0.416h13.946
				c0.181,1.153,0.269,2.309,0.257,3.449C289.88-188.753,289.793-189.768,289.635-190.781"/>
		</g>
		<g>
			<path fill-rule="evenodd" clip-rule="evenodd" fill="#FFFFFF" d="M269.506-181.585c-1.73-1.781-2.567-4.12-2.514-6.442
				c0.049,2.183,0.886,4.35,2.514,6.025c3.388,3.487,9.305,3.521,12.479,0.058c0.781-0.853,1.261-1.846,1.529-2.927h0.094
				c-0.245,1.242-0.743,2.382-1.623,3.343C278.811-178.064,272.894-178.099,269.506-181.585"/>
		</g>
	</g>
</g>
<path fill="#DC493D" d="M214.96,21.473c0,11.873-9.623,21.496-21.496,21.496c-11.872,0-21.496-9.623-21.496-21.496
	s9.624-21.496,21.496-21.496C205.337-0.023,214.96,9.601,214.96,21.473"/>
<g>
	<path fill="#29AAE1" d="M85.984,21.473c0,11.873-9.624,21.496-21.496,21.496c-11.873,0-21.496-9.623-21.496-21.496
		S52.616-0.023,64.488-0.023C76.36-0.023,85.984,9.601,85.984,21.473"/>
	<path fill="#FFFFFF" d="M60.986,29.01c7.124,0,11.02-5.901,11.02-11.02c0-0.167-0.004-0.334-0.011-0.5
		c0.756-0.547,1.414-1.229,1.932-2.006c-0.694,0.309-1.441,0.516-2.224,0.61c0.799-0.479,1.414-1.238,1.703-2.142
		c-0.749,0.443-1.576,0.766-2.459,0.939c-0.707-0.752-1.713-1.223-2.827-1.223c-2.139,0-3.874,1.734-3.874,3.872
		c0,0.304,0.034,0.6,0.101,0.884c-3.219-0.162-6.073-1.703-7.983-4.047c-0.333,0.572-0.524,1.238-0.524,1.947
		c0,1.344,0.684,2.53,1.723,3.224c-0.635-0.02-1.232-0.193-1.754-0.484c-0.001,0.016-0.001,0.032-0.001,0.049
		c0,1.876,1.335,3.442,3.107,3.797c-0.325,0.089-0.667,0.137-1.021,0.137c-0.249,0-0.492-0.025-0.728-0.07
		c0.493,1.539,1.923,2.658,3.618,2.69c-1.326,1.039-2.996,1.658-4.811,1.658c-0.312,0-0.62-0.018-0.924-0.054
		C56.763,28.369,58.798,29.01,60.986,29.01"/>
</g>
<g>
	<path fill="#2075BC" d="M42.992,21.473c0,11.872-9.625,21.496-21.497,21.496C9.625,42.969,0,33.344,0,21.473
		C0,9.601,9.625-0.023,21.496-0.023C33.368-0.023,42.992,9.601,42.992,21.473"/>
	<path fill="#FFFFFF" d="M18.51,31.926v-9.568h-3.054v-4.072h3.054v-3.053c0,0,0.204-4.48,4.073-4.48h3.867v3.868h-2.646
		c0,0-1.426,0.407-1.426,1.22v2.444h4.073v4.072h-4.274v9.569H18.51L18.51,31.926z"/>
</g>
<g>
	<radialGradient id="SVGID_8_" cx="99.1118" cy="47.9629" r="49.7649" gradientUnits="userSpaceOnUse">
		<stop  offset="0" style="stop-color:#FFD676"/>
		<stop  offset="0.2463" style="stop-color:#F2A454"/>
		<stop  offset="0.3793" style="stop-color:#F05C3C"/>
		<stop  offset="0.6995" style="stop-color:#C22F86"/>
		<stop  offset="0.9568" style="stop-color:#6666AD"/>
		<stop  offset="0.9852" style="stop-color:#5C6CB2"/>
		<stop  offset="1" style="stop-color:#5C6CB2"/>
	</radialGradient>
	<path fill="url(#SVGID_8_)" d="M128.859,21.473c0,11.873-9.624,21.496-21.496,21.496c-11.873,0-21.496-9.623-21.496-21.496
		s9.624-21.496,21.496-21.496C119.235-0.023,128.859,9.601,128.859,21.473"/>
	<g>
		<g>
			<defs>
				<rect id="SVGID_9_" x="97.58" y="11.625" width="19.568" height="19.57"/>
			</defs>
			<clipPath id="SVGID_10_">
				<use xlink:href="#SVGID_9_"  overflow="visible"/>
			</clipPath>
			<path clip-path="url(#SVGID_10_)" fill="#FFFFFF" d="M107.362,13.388c2.612,0,2.923,0.01,3.953,0.058
				c0.954,0.043,1.473,0.203,1.817,0.337c0.456,0.177,0.782,0.39,1.125,0.732c0.342,0.342,0.555,0.668,0.731,1.125
				c0.134,0.345,0.295,0.863,0.339,1.817c0.045,1.032,0.056,1.341,0.056,3.954s-0.011,2.923-0.056,3.954
				c-0.044,0.954-0.205,1.472-0.339,1.816c-0.177,0.457-0.39,0.783-0.731,1.125c-0.343,0.343-0.669,0.555-1.125,0.732
				c-0.345,0.134-0.863,0.294-1.817,0.336c-1.03,0.048-1.341,0.058-3.953,0.058c-2.613,0-2.922-0.01-3.954-0.058
				c-0.955-0.042-1.473-0.202-1.816-0.336c-0.457-0.178-0.783-0.39-1.126-0.732c-0.343-0.342-0.554-0.668-0.732-1.125
				c-0.134-0.345-0.293-0.862-0.336-1.816c-0.048-1.031-0.058-1.342-0.058-3.954s0.01-2.922,0.058-3.954
				c0.042-0.954,0.202-1.472,0.336-1.817c0.179-0.457,0.389-0.783,0.732-1.125c0.343-0.342,0.669-0.555,1.126-0.732
				c0.344-0.134,0.861-0.294,1.816-0.337C104.44,13.398,104.749,13.388,107.362,13.388 M107.362,11.625
				c-2.658,0-2.991,0.011-4.034,0.059c-1.042,0.048-1.753,0.213-2.375,0.455c-0.644,0.25-1.189,0.585-1.733,1.129
				c-0.544,0.543-0.878,1.089-1.128,1.733c-0.243,0.622-0.407,1.333-0.455,2.375c-0.047,1.044-0.059,1.377-0.059,4.034
				s0.011,2.99,0.059,4.035c0.048,1.041,0.212,1.752,0.455,2.374c0.25,0.645,0.584,1.188,1.128,1.733
				c0.543,0.544,1.089,0.879,1.733,1.129c0.622,0.242,1.334,0.407,2.375,0.454c1.043,0.049,1.376,0.06,4.034,0.06
				c2.656,0,2.991-0.011,4.034-0.06c1.041-0.047,1.753-0.212,2.375-0.454c0.644-0.25,1.189-0.585,1.733-1.129
				c0.544-0.545,0.879-1.089,1.128-1.733c0.242-0.622,0.407-1.333,0.455-2.374c0.048-1.045,0.061-1.378,0.061-4.035
				s-0.013-2.99-0.061-4.034c-0.048-1.042-0.213-1.753-0.455-2.375c-0.249-0.644-0.584-1.189-1.128-1.733
				c-0.544-0.544-1.09-0.879-1.733-1.129c-0.622-0.242-1.334-0.407-2.375-0.455C110.353,11.637,110.018,11.625,107.362,11.625z"/>
		</g>
		<path fill="#FFFFFF" d="M107.362,16.386c-2.775,0-5.024,2.25-5.024,5.024c0,2.775,2.249,5.024,5.024,5.024
			s5.024-2.249,5.024-5.024C112.386,18.635,110.137,16.386,107.362,16.386 M107.362,24.672c-1.802,0-3.261-1.46-3.261-3.262
			c0-1.801,1.459-3.262,3.261-3.262c1.801,0,3.263,1.46,3.263,3.262C110.625,23.212,109.163,24.672,107.362,24.672z"/>
		<path fill="#FFFFFF" d="M113.759,16.188c0,0.648-0.526,1.174-1.174,1.174c-0.649,0-1.175-0.525-1.175-1.174
			c0-0.649,0.525-1.174,1.175-1.174C113.233,15.013,113.759,15.539,113.759,16.188"/>
	</g>
</g>
<g>
	<path fill="#BA2032" d="M171.968,21.473c0,11.873-9.623,21.496-21.496,21.496c-11.872,0-21.496-9.623-21.496-21.496
		S138.6-0.023,150.472-0.023C162.345-0.023,171.968,9.601,171.968,21.473"/>
	<path fill="#FFFFFF" d="M156.938,14.703h-12.93c-1.829,0-3.312,1.481-3.312,3.311v7.097c0,1.829,1.484,3.312,3.312,3.312h12.93
		c1.83,0,3.312-1.483,3.312-3.312v-7.097C160.25,16.185,158.768,14.703,156.938,14.703 M147.916,25.472l-0.063-7.815l6.752,3.683
		L147.916,25.472z"/>
</g>
<g>
	<g>
		<defs>
			<path id="SVGID_11_" d="M191.699,17.053l0.004-0.004c-2.071-2.026-5.498-1.935-7.626,0.197c-2.235,2.241-2.26,5.903-0.053,8.175
				c2.205,2.271,6.061,2.294,8.128,0.037c0.573-0.627,0.897-1.368,1.058-2.178h-5.158v-3.805h9.084
				c0.398,3.263-0.104,6.452-2.221,8.726c-3.289,3.534-9.203,3.721-13.011,0.6l14.023,14.023l0.005,0.005
				c9.375-1.072,16.924-8.184,18.655-17.344l-0.015-0.016l-9.182-9.181v4.418h-4.418l-6.463-6.464L191.699,17.053z"/>
		</defs>
		<clipPath id="SVGID_12_">
			<use xlink:href="#SVGID_11_"  overflow="visible"/>
		</clipPath>
		<g clip-path="url(#SVGID_12_)">
			<g>
				<defs>
					
						<rect id="SVGID_13_" x="176.508" y="6.842" transform="matrix(-0.7071 -0.7071 0.7071 -0.7071 318.1725 188.8636)" width="43.388" height="43.387"/>
				</defs>
				<clipPath id="SVGID_14_">
					<use xlink:href="#SVGID_13_"  overflow="visible"/>
				</clipPath>
				<polygon clip-path="url(#SVGID_14_)" fill="#BA3E35" points="177.916,-2.144 167.524,8.248 167.524,-2.144 				"/>
				<polygon clip-path="url(#SVGID_14_)" fill="#BA3E35" points="179.846,-2.144 167.524,10.179 167.524,8.146 177.813,-2.144 				
					"/>
				<polygon clip-path="url(#SVGID_14_)" fill="#BB3E35" points="181.881,-2.144 167.524,12.214 167.524,10.179 179.846,-2.144 				
					"/>
				<polygon clip-path="url(#SVGID_14_)" fill="#BC3E35" points="183.915,-2.144 167.524,14.25 167.524,12.214 181.881,-2.144 				
					"/>
				<polygon clip-path="url(#SVGID_14_)" fill="#BD3E35" points="185.951,-2.144 167.524,16.283 167.524,14.25 183.915,-2.144 				
					"/>
				<polygon clip-path="url(#SVGID_14_)" fill="#BE3F35" points="187.983,-2.144 167.524,18.316 167.524,16.283 185.951,-2.144 				
					"/>
				<polygon clip-path="url(#SVGID_14_)" fill="#BF3F35" points="190.019,-2.144 167.524,20.352 167.524,18.316 187.983,-2.144 				
					"/>
				<polygon clip-path="url(#SVGID_14_)" fill="#C03F35" points="192.052,-2.144 167.524,22.388 167.524,20.352 190.019,-2.144 				
					"/>
				<polygon clip-path="url(#SVGID_14_)" fill="#C13F35" points="194.085,-2.144 167.524,24.42 167.524,22.388 192.052,-2.144 				
					"/>
				<polygon clip-path="url(#SVGID_14_)" fill="#C23F35" points="196.121,-2.144 167.524,26.454 167.524,24.42 194.085,-2.144 				
					"/>
				<polygon clip-path="url(#SVGID_14_)" fill="#C33F35" points="198.157,-2.144 167.524,28.489 167.524,26.454 196.121,-2.144 				
					"/>
				<polygon clip-path="url(#SVGID_14_)" fill="#C43F35" points="200.189,-2.144 167.524,30.524 167.524,28.489 198.157,-2.144 				
					"/>
				<polygon clip-path="url(#SVGID_14_)" fill="#C53F35" points="202.222,-2.144 167.524,32.558 167.524,30.524 200.189,-2.144 				
					"/>
				<polygon clip-path="url(#SVGID_14_)" fill="#C64035" points="204.258,-2.144 167.524,34.591 167.524,32.558 202.222,-2.144 				
					"/>
				<polygon clip-path="url(#SVGID_14_)" fill="#C74035" points="206.292,-2.144 167.524,36.627 167.524,34.591 204.258,-2.144 				
					"/>
				<polygon clip-path="url(#SVGID_14_)" fill="#C84035" points="208.327,-2.144 167.524,38.659 167.524,36.627 206.292,-2.144 				
					"/>
				<polygon clip-path="url(#SVGID_14_)" fill="#C94035" points="210.36,-2.144 167.524,40.695 167.524,38.659 208.327,-2.144 				
					"/>
				<polygon clip-path="url(#SVGID_14_)" fill="#CA4035" points="212.396,-2.144 167.524,42.729 167.524,40.695 210.36,-2.144 				
					"/>
				<polygon clip-path="url(#SVGID_14_)" fill="#CB4035" points="214.428,-2.144 167.524,44.764 167.524,42.729 212.396,-2.144 				
					"/>
				<polygon clip-path="url(#SVGID_14_)" fill="#CC4035" points="216.464,-2.144 167.524,46.797 167.524,44.764 214.428,-2.144 				
					"/>
				<polygon clip-path="url(#SVGID_14_)" fill="#CE4135" points="218.498,-2.144 167.524,48.833 167.524,46.797 216.464,-2.144 				
					"/>
				<polygon clip-path="url(#SVGID_14_)" fill="#CF4135" points="220.533,-2.144 167.524,50.865 167.524,48.833 218.498,-2.144 				
					"/>
				<polygon clip-path="url(#SVGID_14_)" fill="#D04135" points="222.566,-2.144 167.524,52.901 167.524,50.865 220.533,-2.144 				
					"/>
				<polygon clip-path="url(#SVGID_14_)" fill="#D14135" points="224.599,-2.144 167.524,54.935 167.524,52.901 222.566,-2.144 				
					"/>
				<polygon clip-path="url(#SVGID_14_)" fill="#D24135" points="226.635,-2.144 167.524,56.971 167.524,54.935 224.599,-2.144 				
					"/>
				<polygon clip-path="url(#SVGID_14_)" fill="#D34135" points="228.67,-2.144 167.524,59.003 167.524,56.971 226.635,-2.144 				
					"/>
				<polygon clip-path="url(#SVGID_14_)" fill="#D44135" points="228.882,-0.319 169.348,59.215 167.524,59.215 167.524,59.003 
					228.67,-2.144 228.882,-2.144 				"/>
				<polygon clip-path="url(#SVGID_14_)" fill="#D54235" points="228.882,1.713 171.381,59.215 169.348,59.215 228.882,-0.319 				
					"/>
				<polygon clip-path="url(#SVGID_14_)" fill="#D64235" points="228.882,3.746 173.414,59.215 171.381,59.215 228.882,1.713 				
					"/>
				<polygon clip-path="url(#SVGID_14_)" fill="#D74235" points="228.882,5.782 175.45,59.215 173.414,59.215 228.882,3.746 				"/>
				<polygon clip-path="url(#SVGID_14_)" fill="#D84235" points="228.882,7.817 177.485,59.215 175.45,59.215 228.882,5.782 				"/>
				<polygon clip-path="url(#SVGID_14_)" fill="#D94235" points="228.882,9.851 179.518,59.215 177.485,59.215 228.882,7.817 				
					"/>
				<polygon clip-path="url(#SVGID_14_)" fill="#DA4235" points="228.882,11.884 181.551,59.215 179.518,59.215 228.882,9.851 				
					"/>
				<polygon clip-path="url(#SVGID_14_)" fill="#DB4235" points="228.882,13.919 183.587,59.215 181.551,59.215 228.882,11.884 				
					"/>
				<polygon clip-path="url(#SVGID_14_)" fill="#DC4235" points="228.882,15.953 185.62,59.215 183.587,59.215 228.882,13.919 				
					"/>
				<polygon clip-path="url(#SVGID_14_)" fill="#DD4335" points="228.882,17.988 187.655,59.215 185.62,59.215 228.882,15.953 				
					"/>
				<polygon clip-path="url(#SVGID_14_)" fill="#DE4335" points="228.882,20.021 189.689,59.215 187.655,59.215 228.882,17.988 				
					"/>
				<polygon clip-path="url(#SVGID_14_)" fill="#DF4335" points="228.882,22.057 191.724,59.215 189.689,59.215 228.882,20.021 				
					"/>
				<polygon clip-path="url(#SVGID_14_)" fill="#E04335" points="228.882,24.09 193.757,59.215 191.724,59.215 228.882,22.057 				
					"/>
				<polygon clip-path="url(#SVGID_14_)" fill="#E04335" points="193.757,59.215 228.882,24.09 228.882,59.215 				"/>
			</g>
		</g>
	</g>
	<g>
		<g>
			<polygon fill-rule="evenodd" clip-rule="evenodd" fill="#AD352D" points="203.058,25.678 203.058,22.312 199.692,22.312 
				199.692,19.911 203.058,19.911 203.058,16.544 205.458,16.544 205.458,19.911 208.825,19.911 208.825,22.312 205.458,22.312 
				205.458,25.678 			"/>
		</g>
		<g>
			<path fill-rule="evenodd" clip-rule="evenodd" fill="#AD352D" d="M181.252,28.363c-3.742-3.792-3.702-9.908,0.092-13.651
				c3.667-3.618,9.476-3.671,13.241-0.245l-2.812,2.811l0.005-0.004c-2.071-2.027-5.498-1.935-7.625,0.196
				c-2.236,2.241-2.261,5.903-0.055,8.174c2.208,2.271,6.062,2.294,8.128,0.038c0.575-0.627,0.899-1.368,1.059-2.178h-5.157v-3.851
				h9.084c0.505,3.234-0.104,6.497-2.221,8.771C191.483,32.194,184.995,32.157,181.252,28.363"/>
		</g>
		<g>
			<polygon fill-rule="evenodd" clip-rule="evenodd" fill="#EFEFEF" points="202.981,25.452 202.981,22.084 199.615,22.084 
				199.615,19.684 202.981,19.684 202.981,16.318 205.383,16.318 205.383,19.684 208.75,19.684 208.75,22.084 205.383,22.084 
				205.383,25.452 			"/>
		</g>
		<g>
			<path fill-rule="evenodd" clip-rule="evenodd" fill="#EFEFEF" d="M181.177,28.138c-3.742-3.793-3.701-9.909,0.091-13.651
				c3.667-3.618,9.477-3.671,13.242-0.245l-2.812,2.811l0.005-0.004c-2.072-2.026-5.499-1.935-7.626,0.197
				c-2.236,2.241-2.261,5.903-0.054,8.175c2.207,2.271,6.061,2.294,8.128,0.037c0.573-0.627,0.897-1.368,1.058-2.178h-5.158v-3.85
				h9.084c0.506,3.234-0.104,6.496-2.221,8.771C191.408,31.969,184.919,31.931,181.177,28.138"/>
		</g>
		<g>
			<rect x="202.981" y="16.318" fill-rule="evenodd" clip-rule="evenodd" fill="#FFFFFF" width="2.402" height="0.269"/>
		</g>
		<g>
			<rect x="205.383" y="19.684" fill-rule="evenodd" clip-rule="evenodd" fill="#FFFFFF" width="3.366" height="0.27"/>
		</g>
		<g>
			<rect x="199.615" y="19.684" fill-rule="evenodd" clip-rule="evenodd" fill="#FFFFFF" width="3.366" height="0.27"/>
		</g>
		<g>
			<path fill-rule="evenodd" clip-rule="evenodd" fill="#FFFFFF" d="M181.268,14.486c3.667-3.618,9.477-3.671,13.242-0.245
				l-0.146,0.146l0.002-0.002c-3.769-3.296-9.478-3.199-13.099,0.374c-1.878,1.853-2.837,4.289-2.87,6.736
				C178.363,18.956,179.322,16.408,181.268,14.486"/>
		</g>
		<g>
			<path fill-rule="evenodd" clip-rule="evenodd" fill="#FFFFFF" d="M197.135,19.701h-9.084V19.43h9.084
				c0.118,0.751,0.175,1.504,0.168,2.247C197.295,21.021,197.239,20.361,197.135,19.701"/>
		</g>
		<g>
			<path fill-rule="evenodd" clip-rule="evenodd" fill="#FFFFFF" d="M184.024,25.691c-1.127-1.161-1.673-2.685-1.638-4.197
				c0.032,1.422,0.577,2.834,1.638,3.925c2.207,2.271,6.061,2.294,8.128,0.037c0.509-0.556,0.821-1.202,0.997-1.906h0.061
				c-0.16,0.809-0.484,1.552-1.058,2.178C190.084,27.984,186.231,27.962,184.024,25.691"/>
		</g>
	</g>
</g>
</svg>
